# xmcd
#
# Track frame offsets:
#	150
#	21450
#	41188
#	56644
#	72331
#	89445
#	102117
#	120012
#	138336
#	157389
#	175380
#	188795
#	205058
#	223782
#	241075
#	255975
#	274206
#	292782
#	313346
#	329666
#
# Disc length: 4714
#
# Revision: 1
# Processed by: cddbd v1.5.1PL0 Copyright (c) Steve Scherf et al.
# Submitted via: CDex 1.40Release
# Normalized: r0:DSETVAR1,TDELIM( - )
#
DISCID=31126814
DTITLE=Various Artist - Country Fall 2002
DYEAR=2002
DGENRE=Country
TTITLE0=Kenny Chesney - Lot Of Things Different
TTITLE1=Tammy Cochran - Life Happened
TTITLE2=Terri Clark - I Just Wanna Be Mad
TTITLE3=Brooks And Dunn - Every River
TTITLE4=Travis Tritt - Strong Enough To Be Your Man
TTITLE5=Emerson Drive - Fall Into Me
TTITLE6=Rebecca Lynn Howard - Forgive
TTITLE7=Shania Twain - I'm Gonna Getcha (Good)
TTITLE8=Tim McGraw - Red Ragtop
TTITLE9=Toby Keith - Who's Your Daddy
TTITLE10=George Strait - She'll Leave You With A Smile
TTITLE11=Rascall Flatts - These Days
TTITLE12=Montgomery Gentry - My Town
TTITLE13=Dixie Chicks - Landslide
TTITLE14=Phil Vassar - American Child
TTITLE15=Joe Nichols - Impossible
TTITLE16=Alan Jackson - Work In Progress
TTITLE17=Martina McBride - Where Would You Be
TTITLE18=Diamond Rio - Beautiful Mess
TTITLE19=Keith Urban - Somebody Like You
EXTD=YEAR: 2002 ID3G: 2
EXTT0=
EXTT1=
EXTT2=
EXTT3=
EXTT4=
EXTT5=
EXTT6=
EXTT7=
EXTT8=
EXTT9=
EXTT10=
EXTT11=
EXTT12=
EXTT13=
EXTT14=
EXTT15=
EXTT16=
EXTT17=
EXTT18=
EXTT19=
PLAYORDER=
